# Blender 3.5.0
# www.blender.org
o Cube
v 10000.000000 -10000.000000 10000.000000
v 10000.000000 -10000.000000 -10000.000000
v -10000.000000 -10000.000000 10000.000000
v -10000.000000 -10000.000000 -10000.000000
v 10000.000000 10000.000000 10000.000000
v 10000.000000 10000.000000 -10000.000000
v -10000.000000 10000.000000 10000.000000
v -10000.000000 10000.000000 -10000.000000
vn -0.0000 -0.0000 1.0000
vn -1.0000 -0.0000 -0.0000
vn -0.0000 1.0000 -0.0000
vn -0.0000 -0.0000 -1.0000
vn -0.0000 -1.0000 -0.0000
vn 1.0000 -0.0000 -0.0000
vt 0.500152 0.666548
vt 0.501078 0.334816
vt 0.251028 0.665854
vt 0.251954 0.334122
vt 0.499226 0.998280
vt 0.749276 0.667241
vt 0.502004 0.003083
vt 0.750201 0.335509
vt 0.250102 0.997587
vt 0.001905 0.665161
vt 0.998399 0.667935
vt 0.999325 0.336202
vt 0.002831 0.333429
vt 0.252880 0.002390
s 0
f 5/5/1 3/3/1 1/1/1
f 3/3/2 8/13/2 4/4/2
f 7/11/3 6/8/3 8/12/3
f 2/2/4 8/14/4 6/7/4
f 1/1/5 4/4/5 2/2/5
f 5/6/6 2/2/6 6/8/6
f 5/5/1 7/9/1 3/3/1
f 3/3/2 7/10/2 8/13/2
f 7/11/3 5/6/3 6/8/3
f 2/2/4 4/4/4 8/14/4
f 1/1/5 3/3/5 4/4/5
f 5/6/6 1/1/6 2/2/6
