# Blender 3.5.0
# www.blender.org
o Cube
v 10000.000000 -10000.000000 10000.000000
v 10000.000000 -10000.000000 -10000.000000
v -10000.000000 -10000.000000 10000.000000
v -10000.000000 -10000.000000 -10000.000000
v 10000.000000 10000.000000 10000.000000
v 10000.000000 10000.000000 -10000.000000
v -10000.000000 10000.000000 10000.000000
v -10000.000000 10000.000000 -10000.000000
vn -0.0000 -0.0000 1.0000
vn -1.0000 -0.0000 -0.0000
vn -0.0000 1.0000 -0.0000
vn -0.0000 -0.0000 -1.0000
vn -0.0000 -1.0000 -0.0000
vn 1.0000 -0.0000 -0.0000
vt 0.497916 0.663789
vt 0.498834 0.335321
vt 0.251040 0.663103
vt 0.251958 0.334635
vt 0.496999 0.992257
vt 0.744792 0.664476
vt 0.499752 0.006853
vt 0.745710 0.336008
vt 0.250123 0.991571
vt 0.004165 0.662416
vt 0.991668 0.665162
vt 0.992586 0.336694
vt 0.005082 0.333948
vt 0.252876 0.006167
s 0
f 5/5/1 3/3/1 1/1/1
f 3/3/2 8/13/2 4/4/2
f 7/11/3 6/8/3 8/12/3
f 2/2/4 8/14/4 6/7/4
f 1/1/5 4/4/5 2/2/5
f 5/6/6 2/2/6 6/8/6
f 5/5/1 7/9/1 3/3/1
f 3/3/2 7/10/2 8/13/2
f 7/11/3 5/6/3 6/8/3
f 2/2/4 4/4/4 8/14/4
f 1/1/5 3/3/5 4/4/5
f 5/6/6 1/1/6 2/2/6
