# Blender 3.5.0
# www.blender.org
o Track
v 26.850000 1.180000 0.000000
v 26.850000 1.180000 -2.000000
v 26.850000 -38.820000 0.000000
v 26.850000 -38.820000 -2.000000
v -13.150000 1.180000 0.000000
v -13.150000 1.180000 -2.000000
v -13.150000 -38.820000 0.000000
v -13.150000 -38.820000 -2.000000
vn -0.0000 -0.0000 1.0000
vn -0.0000 -1.0000 -0.0000
vn -1.0000 -0.0000 -0.0000
vn -0.0000 -0.0000 -1.0000
vn 1.0000 -0.0000 -0.0000
vn -0.0000 1.0000 -0.0000
vt -0.054978 -0.003007
vt -0.014632 0.500000
vt 1.610240 0.500000
vt -0.264632 0.500000
vt -0.409065 0.500000
vt 1.360240 0.500000
vt -0.054978 1.008708
vt 1.821731 0.750000
vt -0.014632 0.750000
vt 1.571731 0.750000
vt -0.409065 0.750000
vt -0.264632 0.750000
vt 0.996894 -0.003007
vt -0.065217 0.148206
vt 1.610240 0.250000
vt -0.659065 0.500000
vt 1.360240 0.250000
vt -0.597947 0.148206
vt 0.996894 1.008708
vt 1.821731 1.000000
vt -0.065217 -0.341854
vt -0.597947 -0.341854
vt 1.571731 1.000000
vt -0.659065 0.750000
s 0
f 5/13/1 3/7/1 1/1/1
f 3/8/2 8/23/2 4/10/2
f 7/21/3 6/18/3 8/22/3
f 2/5/4 8/24/4 6/16/4
f 1/2/5 4/12/5 2/4/5
f 5/15/6 2/6/6 6/17/6
f 5/13/1 7/19/1 3/7/1
f 3/8/2 7/20/2 8/23/2
f 7/21/3 5/14/3 6/18/3
f 2/5/4 4/11/4 8/24/4
f 1/2/5 3/9/5 4/12/5
f 5/15/6 1/3/6 2/6/6
